<?xml version="1.0" encoding="utf-8"?>
<!-- Generator: Adobe Illustrator 23.0.1, SVG Export Plug-In . SVG Version: 6.00 Build 0)  -->
<svg version="1.1" id="Layer_1" xmlns="http://www.w3.org/2000/svg" xmlns:xlink="http://www.w3.org/1999/xlink" x="0px" y="0px"
	 viewBox="-50 0 300 100" style="enable-background:new 0 0 1005 113.8;" xml:space="preserve">
<style type="text/css">
	.st1{fill:#0086F2;}
</style>

<path class="st1" d="M195.8,56.9L195.8,56.9c0-8.6-6.9-15.5-15.5-15.5H89.9c-2.9,0-5.2-2.3-5.2-5.2v0c0-2.9,2.3-5.2,5.2-5.2h57.7
	c8.6,0,15.5-6.9,15.5-15.5v0c0-8.6-6.9-15.5-15.5-15.5L84.7,0c-2.9,0-5.2,2.3-5.2,5.2v10.4c0,2.9-2.3,5.2-5.2,5.2H15.5
	C6.9,20.7,0,27.6,0,36.2v0c0,8.6,6.9,15.5,15.5,15.5h53.7c2.9,0,5.2,2.3,5.2,5.2v0c0,2.9-2.3,5.2-5.2,5.2H45.8
	c-8.6,0-15.5,6.9-15.5,15.5v0c0,8.6,6.9,15.5,15.5,15.5h28.6c2.9,0,5.2,2.3,5.2,5.2v10.4c0,2.9,2.3,5.2,5.2,5.2h28.7
	c8.6,0,15.5-6.9,15.5-15.5v0c0-8.6-6.9-15.5-15.5-15.5H89.9c-2.9,0-5.2-2.3-5.2-5.2v0c0-2.9,2.3-5.2,5.2-5.2h90.3
	C188.8,72.4,195.8,65.5,195.8,56.9z"/>

</svg>
